<?xml version="1.0" standalone="no"?>
<!DOCTYPE svg PUBLIC "-//W3C//DTD SVG 20010904//EN"
 "http://www.w3.org/TR/2001/REC-SVG-20010904/DTD/svg10.dtd">
<svg version="1.0" xmlns="http://www.w3.org/2000/svg"
 width="162.000000pt" height="162.000000pt" viewBox="0 0 162.000000 162.000000"
 preserveAspectRatio="xMidYMid meet">
<metadata>
Created by potrace 1.11, written by Peter Selinger 2001-2013
</metadata>
<g transform="translate(0.000000,162.000000) scale(0.100000,-0.100000)"
fill="#000000" stroke="none">
<path d="M15 1510 c-3 -4 5 -23 18 -41 12 -19 101 -160 197 -314 95 -154 177
-284 181 -289 4 -4 76 95 161 222 l154 229 -51 100 -50 100 -303 0 c-166 0
-305 -3 -307 -7z"/>
<path d="M482 807 c-260 -390 -472 -711 -470 -712 4 -4 279 -8 458 -6 l156 1
472 709 c260 390 472 711 472 713 0 3 -138 5 -308 5 l-307 0 -473 -710z"/>
<path d="M1060 597 c-63 -94 -134 -203 -158 -240 l-44 -68 48 -99 47 -100 309
0 c169 0 308 3 307 8 0 4 -8 19 -17 34 -21 34 -308 524 -340 582 -13 22 -27
44 -31 48 -4 4 -58 -70 -121 -165z"/>
</g>
</svg>
